<svg xmlns="http://www.w3.org/2000/svg" width="1024" height="1024" viewBox="0 0 1024 1024">
  <title>Spool app icon (full detail, 512px+)</title>
  <rect id="bg-tile" width="1024" height="1024" rx="225" fill="#b45309"/>
  <g id="mark" transform="translate(-8,-10)">
    <g id="glass-flange">
      <circle cx="512" cy="512" r="358" fill="#faf7f0" fill-opacity="0.08"/>
      <circle cx="512" cy="512" r="358" fill="none" stroke="#ffffff" stroke-width="6" stroke-opacity="0.22"/>
    </g>
    <g id="thread-shadows">
      <path d="M 281 400 A 297 297 0 0 1 436 269" fill="none" stroke="#92400e" stroke-width="61" stroke-linecap="round" stroke-opacity="0.9"/>
      <path d="M 766 739 A 297 297 0 0 1 615 835 Q 538 865 558 937" fill="none" stroke="#92400e" stroke-width="61" stroke-linecap="round" stroke-opacity="0.9"/>
    </g>
    <g id="coil">
      <path d="M 410 233 A 297 297 0 0 1 740 703" fill="none" stroke="#faf7f0" stroke-width="61" stroke-linecap="round"/>
      <path d="M 512 338 A 174 174 0 1 1 512 686 A 174 174 0 1 1 512 338" fill="none" stroke="#faf7f0" stroke-width="48" stroke-linecap="round" stroke-opacity="0.58"/>
      <path d="M 512 445 A 67 67 0 1 1 512 579 A 67 67 0 1 1 512 445" fill="none" stroke="#faf7f0" stroke-width="46" stroke-linecap="round" stroke-opacity="0.3"/>
      <path d="M 255 364 A 297 297 0 0 1 410 233" fill="none" stroke="#fffdf8" stroke-width="61" stroke-linecap="round"/>
      <path d="M 740 703 A 297 297 0 0 1 589 799 Q 512 829 532 901" fill="none" stroke="#fffdf8" stroke-width="61" stroke-linecap="round"/>
    </g>
    <g id="axle-cap">
      <circle cx="512" cy="512" r="102" fill="#fffdf4" fill-opacity="0.1"/>
      <circle cx="512" cy="512" r="102" fill="none" stroke="#ffffff" stroke-width="5" stroke-opacity="0.45"/>
      <path d="M 422 479 A 96 96 0 0 1 545 422" fill="none" stroke="#ffffff" stroke-width="7" stroke-linecap="round" stroke-opacity="0.55"/>
    </g>
    <g id="specular">
      <circle cx="246" cy="348" r="13" fill="#ffffff" fill-opacity="0.9"/>
      <circle cx="522" cy="881" r="13" fill="#ffffff" fill-opacity="0.9"/>
    </g>
  </g>
</svg>